<svg xmlns="http://www.w3.org/2000/svg" viewBox="0 0 1200 700" role="img" aria-labelledby="title desc"><title id="title">CargoUncle car carrier</title><desc id="desc">Illustration of a car being transported on a branded vehicle carrier truck.</desc><rect width="1200" height="700" fill="#eef3f8"/><rect y="535" width="1200" height="165" fill="#d8e0e9"/><rect x="90" y="405" width="820" height="38" rx="12" fill="#10254b"/><rect x="120" y="330" width="720" height="82" rx="16" fill="#f56b0a"/><rect x="120" y="330" width="720" height="12" fill="#092149"/><rect x="760" y="350" width="80" height="60" fill="#ff8b35"/><rect x="825" y="350" width="75" height="60" rx="10" fill="#10254b"/><circle cx="190" cy="455" r="48" fill="#10254b"/><circle cx="190" cy="455" r="22" fill="#d8e0e9"/><circle cx="790" cy="455" r="48" fill="#10254b"/><circle cx="790" cy="455" r="22" fill="#d8e0e9"/><path d="M205 315h530l-80-105H300z" fill="#fff" stroke="#10254b" stroke-width="10"/><path d="M300 295h430" stroke="#f56b0a" stroke-width="12"/><g transform="translate(330 155)"><path d="M30 110h420l-45-65H110z" fill="#ff6b0a"/><rect x="80" y="45" width="280" height="65" rx="20" fill="#10254b"/><path d="M135 50h80l35 50h-130zM260 50h75l35 50h-75z" fill="#bcd5ea"/><circle cx="120" cy="112" r="34" fill="#10254b"/><circle cx="390" cy="112" r="34" fill="#10254b"/><circle cx="120" cy="112" r="15" fill="#d8e0e9"/><circle cx="390" cy="112" r="15" fill="#d8e0e9"/><text x="225" y="36" text-anchor="middle" font-family="Arial,sans-serif" font-size="28" font-weight="700" fill="#092149">CARGOUNCLE</text></g><text x="600" y="625" text-anchor="middle" font-family="Arial,sans-serif" font-size="34" font-weight="700" fill="#10254b">CAR TRANSPORT • PAN INDIA</text></svg>